<?xml version="1.0" encoding="iso-8859-1"?>
<!-- Generator: Adobe Illustrator 19.0.0, SVG Export Plug-In . SVG Version: 6.00 Build 0)  -->
<svg version="1.1" id="Capa_1" xmlns="http://www.w3.org/2000/svg" xmlns:xlink="http://www.w3.org/1999/xlink" x="0px" y="0px"
	 viewBox="0 0 512 512" style="enable-background:new 0 0 512 512;" xml:space="preserve">
<g>
	<path style="fill:#FF6849;" d="M412.83,432H99.17l33.461-290h246.738L412.83,432z"/>
	<rect x="241" style="fill:#FF6849;" width="30" height="60"/>
	
		<rect x="112.998" y="45.278" transform="matrix(-0.5 -0.866 0.866 -0.5 162.296 214.2562)" style="fill:#FF6849;" width="59.999" height="29.999"/>
	
		<rect x="30.283" y="127.997" transform="matrix(-0.866 -0.5 0.5 -0.866 40.9882 296.977)" style="fill:#FF6849;" width="59.999" height="29.999"/>
	<rect y="241" style="fill:#FF6849;" width="60" height="30"/>
</g>
<g>
	<rect x="452" y="241" style="fill:#E8130F;" width="60" height="30"/>
	
		<rect x="436.723" y="112.99" transform="matrix(-0.5 -0.866 0.866 -0.5 553.7572 605.6857)" style="fill:#E8130F;" width="29.999" height="59.998"/>
	
		<rect x="353.994" y="30.273" transform="matrix(-0.866 -0.5 0.5 -0.866 658.4129 296.9707)" style="fill:#E8130F;" width="29.999" height="59.999"/>
	<polygon style="fill:#E8130F;" points="256,432 412.83,432 379.369,142 256,142 	"/>
</g>
<path style="fill:#DFDFE1;" d="M451,512H61v-90h390V512z"/>
<path style="fill:#AFAEB4;" d="M451,512H256v-90h195V512z"/>
<g>
</g>
<g>
</g>
<g>
</g>
<g>
</g>
<g>
</g>
<g>
</g>
<g>
</g>
<g>
</g>
<g>
</g>
<g>
</g>
<g>
</g>
<g>
</g>
<g>
</g>
<g>
</g>
<g>
</g>
</svg>
